<svg width="22" height="20" viewBox="0 0 22 20" fill="none" xmlns="http://www.w3.org/2000/svg">
<path d="M9.52497 8.7L3.32499 0.6C2.925 0.2 2.42499 0 1.925 0C1.425 0 0.924997 0.2 0.524999 0.6C-0.175 1.4 -0.175 2.6 0.524999 3.4L5.42499 10L0.524999 16.6C-0.175 17.4 -0.175 18.6 0.524999 19.4C0.924997 19.8 1.425 20 1.925 20C2.42499 20 2.925 19.8 3.32499 19.4L9.52497 11.3C10.225 10.7 10.225 9.5 9.52497 8.7Z" fill="#7772F1"/>
<path d="M12.1678 8.7L18.3678 0.6C18.7678 0.2 19.2678 0 19.7678 0C20.2678 0 20.7678 0.2 21.1678 0.6C21.8678 1.4 21.8678 2.6 21.1678 3.4L16.2678 10L21.1678 16.6C21.8678 17.4 21.8678 18.6 21.1678 19.4C20.7678 19.8 20.2678 20 19.7678 20C19.2678 20 18.7678 19.8 18.3678 19.4L12.1678 11.3C11.4678 10.7 11.4678 9.5 12.1678 8.7Z" fill="#7772F1"/>
</svg>
