<svg width="591" height="526" viewBox="0 0 591 526" fill="none" xmlns="http://www.w3.org/2000/svg">
<path d="M73.4414 305.62L155.011 378.926L191.214 526L250.231 511.674L240.345 501.14C240.345 501.14 238.075 279.96 142.301 244.445" fill="#B3B7BC"/>
<rect x="28.3789" y="303.758" width="92.0203" height="33.1093" rx="16.5546" fill="#00F0B5"/>
<path d="M103.898 336.866H44.8779" stroke="#1E212C" stroke-width="1.5" stroke-linecap="round" stroke-linejoin="round"/>
<path d="M79.1367 63.769V91.0333L112.8 99.3348V53.325L79.1367 45.0234V63.769Z" fill="#D7DADD"/>
<path d="M83.0017 77.6107C82.7025 77.9849 82.6216 78.4896 82.7888 78.9391C82.9561 79.3886 83.3467 79.7166 83.8172 79.8026C85.7007 80.4605 89.0645 76.9814 91.3539 79.3544C91.3539 79.3544 92.2593 76.4861 98.3549 78.9732C104.45 81.4603 102.77 77.0371 102.77 77.0371" stroke="white" stroke-width="1.5" stroke-linecap="round" stroke-linejoin="round"/>
<path d="M98.154 73.2026C98.6511 73.2026 99.0541 72.7983 99.0541 72.2996C99.0541 71.8008 98.6511 71.3965 98.154 71.3965C97.6569 71.3965 97.2539 71.8008 97.2539 72.2996C97.2539 72.7983 97.6569 73.2026 98.154 73.2026Z" fill="#1E212C"/>
<path d="M84.3308 73.2026C84.8279 73.2026 85.2308 72.7983 85.2308 72.2996C85.2308 71.8008 84.8279 71.3965 84.3308 71.3965C83.8336 71.3965 83.4307 71.8008 83.4307 72.2996C83.4307 72.7983 83.8336 73.2026 84.3308 73.2026Z" fill="#1E212C"/>
<path d="M88.3827 77.6869V63.7695H81.4336" stroke="#1E212C" stroke-width="1.5" stroke-linecap="round" stroke-linejoin="round"/>
<path d="M99.8475 63.7695H92.8984" stroke="#1E212C" stroke-width="1.5" stroke-linecap="round" stroke-linejoin="round"/>
<path d="M110.586 70.9008V75.7337C113.184 75.7337 115.291 73.6203 115.291 71.0133C115.291 70.8685 115.284 70.7253 115.272 70.5837C115.008 67.6525 110.586 67.9577 110.586 70.9008Z" fill="#E5E8ED"/>
<path d="M110.586 75.733C113.184 75.733 115.291 73.6197 115.291 71.0127" stroke="#1E212C" stroke-width="1.5" stroke-linecap="round" stroke-linejoin="round"/>
<path d="M102.004 96.6729L112.8 99.3351" stroke="#1E212C" stroke-width="1.5" stroke-linecap="round" stroke-linejoin="round"/>
<path d="M88.3867 77.6973L91.426 78.4468" stroke="#1E212C" stroke-width="1.5" stroke-linecap="round" stroke-linejoin="round"/>
<path d="M79.1368 74.6456C79.1368 74.6456 71.3152 91.4125 83.4282 96.7185C95.5412 102.025 112.827 88.6336 110.583 73.2031" stroke="white" stroke-width="1.5" stroke-linecap="round" stroke-linejoin="round"/>
<path d="M77.8789 56.2861C77.8789 56.2861 80.5657 61.2831 89.9051 61.4907V58.4085C94.0454 60.9553 98.832 62.2453 103.687 62.1227V59.682C103.687 59.682 109.504 66.2374 104.85 71.3962" stroke="white" stroke-width="1.5" stroke-linecap="round" stroke-linejoin="round"/>
<path d="M92.0625 83.0711C94.0154 83.0711 95.5985 81.4828 95.5985 79.5234" stroke="#1E212C" stroke-width="1.5" stroke-linecap="round" stroke-linejoin="round"/>
<path d="M79.1412 69.9227C79.1412 69.9227 65.5404 46.3642 80.3579 43.499C95.1754 40.6338 105.329 47.3193 105.329 47.3193C105.329 47.3193 127.737 51.8799 112.805 68.5419" stroke="white" stroke-width="1.5" stroke-linecap="round" stroke-linejoin="round"/>
<path d="M50.9141 148.158V221.911L155.051 247.59V165.45C155.051 136.324 135.233 110.961 107.042 104.01H107.042C93.5223 100.676 79.2259 103.762 68.2698 112.38C57.3137 120.998 50.9141 134.19 50.9141 148.158V148.158Z" fill="#00F0B5"/>
<path d="M50.919 221.91C50.919 221.91 32.8244 347.69 166.095 327.636L166.73 433.362H231.194L221.307 424.733C221.307 424.733 278.423 266.827 155.056 247.59" fill="#D7DADD"/>
<path d="M166.726 433.361H231.19" stroke="#1E212C" stroke-width="1.5" stroke-linecap="round" stroke-linejoin="round"/>
<path d="M50.919 221.91C50.919 221.91 32.8244 347.69 166.095 327.636L166.73 433.362" stroke="#1E212C" stroke-width="1.5" stroke-linecap="round" stroke-linejoin="round"/>
<path d="M0.75 433.139H155.007" stroke="white" stroke-width="1.5" stroke-linecap="round" stroke-linejoin="round"/>
<path d="M74.4399 336.754V432.953" stroke="white" stroke-width="1.5" stroke-linecap="round" stroke-linejoin="round"/>
<path d="M73.4412 108.859C73.4412 108.859 30.2851 133.754 35.7851 193.606C41.2852 253.457 136 216.103 161.836 197.426C161.836 197.426 175.823 187.156 172.438 170.398L180.556 164.9L178.364 160.072L81.4393 175.133L85.2325 151.583" stroke="white" stroke-width="1.5" stroke-linecap="round" stroke-linejoin="round"/>
<path d="M54.8604 222.374C62.4372 234.096 84.5637 239.125 108.443 233.626C129.919 228.681 146.413 216.694 150.771 204.246C125.929 217.782 80.6467 233.581 54.8604 222.374Z" fill="#1E212C"/>
<path d="M120.977 109.256L185.128 138.847C185.128 138.847 199.935 80.1716 217.282 77.0366C234.628 73.9016 234.503 75.7327 234.503 75.7327L233.519 80.3378L225.271 83.0706C225.271 83.0706 229.128 102.156 218.974 102.673C218.974 102.673 250.505 218.193 153.508 202.715" stroke="white" stroke-width="1.5" stroke-linecap="round" stroke-linejoin="round"/>
<path d="M486.546 225.83L324.383 170.54L345.048 86.9248L519.351 93.2696L486.546 225.83Z" fill="#B3B7BC"/>
<path d="M397.842 350.232L217.949 224.696L324.383 170.426L486.546 225.829L397.842 350.232Z" fill="#E5E8ED"/>
<path d="M396.546 304.347L264.14 219.202L265.664 218.636L397.224 303.214L396.546 304.347Z" fill="#1E212C"/>
<path d="M415.179 279.704L283.901 207.702L285.2 206.909L416.195 278.514L415.179 279.704Z" fill="#1E212C"/>
<path d="M433.304 257.667L304.511 197.392L305.753 196.542L434.038 256.591L433.304 257.667Z" fill="#1E212C"/>
<path d="M451.769 234.894L322.354 185.269L323.71 184.419L452.785 233.648L451.769 234.894Z" fill="#1E212C"/>
<path d="M270.292 237.443L268.824 236.65L348.042 190.764L349.68 191.33L270.292 237.443Z" fill="#1E212C"/>
<path d="M304.231 260.104L302.819 259.367L374.246 199.545L375.714 199.998L304.231 260.104Z" fill="#1E212C"/>
<path d="M339.401 283.897L338.159 283.104L405.294 210.762L406.706 211.102L339.401 283.897Z" fill="#1E212C"/>
<path d="M375.486 307.802L374.526 307.009L441.774 224.924L443.016 225.377L375.486 307.802Z" fill="#1E212C"/>
<path d="M527.595 88.8505C527.425 88.7372 527.199 88.6805 526.973 88.6805L365.093 83.5254H365.036L345.048 86.9244L350.638 87.151L365.093 84.8283L525.054 89.9268L519.407 93.2691L519.012 94.9686L526.409 90.4367L490.159 238.293L486.659 225.66L327.262 171.389L325.625 172.239L485.755 226.963L489.425 240.955L396.825 371.533L398.858 348.76L397.842 350.233L395.753 373.176L219.982 241.975L219.304 225.66L217.949 224.697L218.74 242.655L395.753 375.045L490.78 241.238L527.877 89.6436C527.933 89.3603 527.82 89.0771 527.595 88.8505Z" fill="white"/>
<path d="M369.106 156.508C367.578 156.092 366.101 155.516 364.699 154.788C363.343 154.099 362.072 153.26 360.909 152.288C359.794 151.405 358.775 150.411 357.868 149.32C356.984 148.226 356.243 147.025 355.662 145.747L367.635 138.248C368.156 139.696 368.962 141.027 370.008 142.164C371.109 143.388 372.54 144.277 374.135 144.729C374.838 144.918 375.577 144.946 376.294 144.809C376.656 144.747 376.994 144.591 377.274 144.356C377.554 144.121 377.764 143.816 377.884 143.474C378.049 143.122 378.091 142.727 378.005 142.35C377.877 141.91 377.645 141.508 377.326 141.175C376.826 140.595 376.264 140.07 375.649 139.609C374.926 138.995 373.994 138.27 372.849 137.403C371.766 136.572 370.766 135.643 369.86 134.627C368.951 133.656 368.223 132.533 367.711 131.31C367.211 129.996 366.972 128.599 367.007 127.195C367.113 125.413 367.546 123.664 368.285 122.033C369.258 119.585 370.757 117.372 372.678 115.549C374.344 114 376.29 112.775 378.413 111.938C380.425 111.165 382.563 110.764 384.719 110.756C386.766 110.732 388.806 110.981 390.785 111.494C393.362 112.233 395.747 113.513 397.776 115.245C399.925 117.051 401.604 119.339 402.673 121.918L390.741 128.825C390.435 127.44 389.736 126.171 388.724 125.168C387.901 124.292 386.855 123.651 385.694 123.311C384.898 123.06 384.052 122.998 383.226 123.131C382.89 123.2 382.576 123.352 382.314 123.573C382.052 123.793 381.851 124.075 381.728 124.392C381.562 124.663 381.488 124.98 381.519 125.295C381.551 125.61 381.684 125.907 381.901 126.14C382.635 126.869 383.431 127.534 384.282 128.127C385.46 128.99 386.647 129.951 387.88 131.038C389.111 132.099 390.171 133.338 391.024 134.714C391.873 136.148 392.403 137.745 392.579 139.398C392.696 141.446 392.307 143.493 391.446 145.363C390.46 147.77 389 149.96 387.149 151.805C385.503 153.425 383.565 154.727 381.436 155.642C379.443 156.521 377.306 157.033 375.129 157.152C373.099 157.252 371.066 157.035 369.106 156.508Z" fill="white"/>
<path d="M408.429 117.427L434.728 124.758L429.636 137.032L415.391 133.077L413.826 136.846L427.161 140.559L422.485 152.062L408.985 148.332L407.29 152.445L422.412 156.643L417.32 168.917L390.111 161.344L408.429 117.427Z" fill="white"/>
<path d="M430.334 147.805C431.697 144.493 433.633 141.443 436.054 138.794C438.184 136.389 440.727 134.378 443.564 132.857C449.026 129.939 455.405 129.223 461.376 130.858C464.236 131.593 466.903 132.93 469.198 134.778C471.305 136.491 472.971 138.679 474.057 141.161C475.181 143.811 475.69 146.68 475.547 149.555C475.374 152.962 474.585 156.312 473.219 159.444C471.828 162.76 469.898 165.827 467.506 168.52C465.354 170.997 462.771 173.068 459.881 174.633C457.167 176.136 454.19 177.112 451.11 177.508C448.044 177.88 444.935 177.653 441.957 176.841C439.099 176.105 436.439 174.755 434.165 172.884C432.071 171.108 430.433 168.861 429.387 166.329C428.319 163.604 427.85 160.682 428.013 157.76C428.172 154.33 428.959 150.957 430.334 147.805ZM443.922 151.547C443.37 152.851 443.005 154.225 442.838 155.63C442.738 156.813 442.856 158.003 443.184 159.143C443.477 160.152 444.023 161.07 444.77 161.811C445.536 162.541 446.474 163.069 447.499 163.347C448.582 163.626 449.714 163.659 450.813 163.445C451.948 163.213 453.027 162.76 453.986 162.111C455.139 161.405 456.168 160.515 457.03 159.476C457.934 158.326 458.676 157.058 459.236 155.709C459.794 154.432 460.151 153.078 460.293 151.694C460.415 150.599 460.306 149.491 459.972 148.441C459.645 147.476 459.082 146.606 458.334 145.91C457.575 145.179 456.635 144.661 455.609 144.407C454.526 144.12 453.394 144.064 452.288 144.244C451.164 144.459 450.086 144.866 449.102 145.448C448.035 146.133 447.092 146.993 446.313 147.991C445.391 149.057 444.629 150.251 444.053 151.534L443.922 151.547Z" fill="white"/>
<path d="M338.053 49.575L271.233 66.9937L258.395 17.418L259.607 17.102L272.13 65.4593L337.737 48.3566L338.053 49.575Z" fill="#E5E8ED"/>
<path d="M283.905 37.2291L276.044 39.2783L282.172 62.9395L290.033 60.8902L283.905 37.2291Z" fill="#E5E8ED"/>
<path d="M296.855 22.4273L288.994 24.4766L297.894 58.8416L305.755 56.7923L296.855 22.4273Z" fill="#E5E8ED"/>
<path d="M312.928 10.4195L305.067 12.4688L315.864 54.1574L323.725 52.1082L312.928 10.4195Z" fill="#E5E8ED"/>
<path d="M465.81 387.064C465.806 394.229 467.889 401.238 471.804 407.23C475.719 413.222 481.294 417.936 487.843 420.791C494.393 423.645 501.631 424.517 508.668 423.298C515.705 422.08 522.233 418.824 527.45 413.932C532.667 409.039 536.345 402.724 538.031 395.762C539.717 388.8 539.338 381.495 536.94 374.747C534.543 367.998 530.231 362.1 524.536 357.777C518.841 353.455 512.011 350.897 504.886 350.418V387.064H465.81Z" fill="#00F0B5"/>
<path d="M461.846 382.799H500.922V346.113C500.135 346.05 499.3 346.026 498.482 346.026C493.669 346.026 488.904 346.978 484.458 348.826C480.012 350.674 475.973 353.383 472.57 356.798C469.168 360.213 466.47 364.267 464.63 368.728C462.79 373.189 461.843 377.971 461.846 382.799Z" fill="#D7DADD"/>
<path d="M544.777 237.579L586.333 223.727L575.713 191.794L568.102 187.876L532.225 199.835L544.777 237.579Z" fill="#B3B7BC"/>
<path d="M545.34 237.861L589.881 223.014C589.947 222.992 590.001 222.945 590.032 222.884C590.062 222.822 590.067 222.75 590.046 222.685L578.663 188.458C578.64 188.394 578.595 188.341 578.536 188.309L570.379 184.115C570.317 184.083 570.244 184.077 570.178 184.098L531.723 196.917C531.658 196.939 531.603 196.985 531.573 197.047C531.542 197.109 531.537 197.181 531.559 197.246L545.013 237.702C545.024 237.734 545.041 237.764 545.063 237.789C545.086 237.815 545.113 237.836 545.143 237.85C545.174 237.865 545.207 237.874 545.241 237.876C545.274 237.878 545.308 237.873 545.34 237.861ZM589.471 222.602L545.444 237.278L532.153 197.316L570.233 184.623L578.204 188.724L589.471 222.602Z" fill="white"/>
<path d="M538.992 205.956L575.711 193.716C575.776 193.694 575.83 193.647 575.861 193.586C575.892 193.524 575.897 193.452 575.875 193.387C575.853 193.321 575.806 193.267 575.745 193.236C575.683 193.205 575.612 193.2 575.546 193.222L538.828 205.462C538.762 205.483 538.708 205.53 538.678 205.592C538.647 205.654 538.642 205.725 538.664 205.791C538.685 205.856 538.732 205.911 538.794 205.942C538.855 205.973 538.927 205.978 538.992 205.956Z" fill="white"/>
<path d="M540.95 211.836L577.669 199.596C577.734 199.574 577.788 199.527 577.819 199.466C577.85 199.404 577.855 199.332 577.833 199.267C577.811 199.201 577.765 199.147 577.703 199.116C577.641 199.085 577.57 199.08 577.505 199.102L540.786 211.341C540.72 211.363 540.666 211.41 540.636 211.472C540.605 211.534 540.6 211.605 540.622 211.671C540.643 211.736 540.69 211.791 540.752 211.822C540.814 211.852 540.885 211.858 540.95 211.836Z" fill="white"/>
<path d="M542.888 217.672L579.606 205.432C579.672 205.41 579.726 205.363 579.757 205.302C579.787 205.24 579.792 205.168 579.771 205.103C579.749 205.037 579.702 204.983 579.64 204.952C579.579 204.921 579.507 204.916 579.442 204.938L542.723 217.177C542.658 217.199 542.604 217.246 542.573 217.308C542.542 217.37 542.537 217.441 542.559 217.507C542.581 217.572 542.628 217.627 542.689 217.658C542.751 217.689 542.822 217.694 542.888 217.672Z" fill="white"/>
<path d="M544.836 223.529L581.555 211.29C581.62 211.268 581.674 211.221 581.705 211.159C581.736 211.097 581.741 211.026 581.719 210.96C581.709 210.927 581.692 210.897 581.67 210.87C581.648 210.844 581.62 210.823 581.59 210.807C581.559 210.792 581.525 210.783 581.491 210.781C581.457 210.779 581.423 210.784 581.39 210.795L544.671 223.035C544.638 223.045 544.608 223.062 544.581 223.084C544.555 223.106 544.533 223.134 544.517 223.165C544.501 223.195 544.492 223.229 544.489 223.264C544.487 223.298 544.491 223.333 544.502 223.366C544.525 223.432 544.573 223.485 544.636 223.516C544.698 223.546 544.77 223.551 544.836 223.529Z" fill="white"/>
<path d="M546.785 229.388L583.504 217.148C583.536 217.137 583.566 217.12 583.592 217.098C583.618 217.075 583.639 217.048 583.654 217.017C583.669 216.987 583.678 216.954 583.681 216.919C583.683 216.885 583.679 216.851 583.668 216.819C583.658 216.786 583.641 216.755 583.619 216.729C583.597 216.703 583.57 216.681 583.539 216.666C583.508 216.65 583.475 216.641 583.44 216.639C583.406 216.637 583.372 216.642 583.339 216.654L546.621 228.893C546.588 228.904 546.557 228.92 546.531 228.943C546.504 228.965 546.482 228.992 546.467 229.023C546.451 229.054 546.441 229.088 546.439 229.122C546.436 229.157 546.44 229.192 546.451 229.224C546.475 229.29 546.523 229.344 546.585 229.374C546.648 229.405 546.72 229.41 546.785 229.388Z" fill="white"/>
<path d="M572.415 190.739L578.405 188.742C578.462 188.714 578.507 188.665 578.531 188.606C578.555 188.547 578.558 188.481 578.537 188.421C578.517 188.36 578.476 188.309 578.421 188.276C578.366 188.243 578.302 188.232 578.239 188.243L572.495 190.157L570.41 184.208C570.384 184.144 570.336 184.092 570.274 184.062C570.212 184.032 570.141 184.026 570.075 184.045C570.011 184.069 569.959 184.118 569.93 184.18C569.901 184.242 569.897 184.313 569.918 184.378L572.086 190.574C572.109 190.639 572.156 190.692 572.218 190.723C572.279 190.754 572.35 190.759 572.415 190.739Z" fill="white"/>
</svg>
